# Blender v2.79 (sub 0) OBJ File: ''
# www.blender.org
mtllib button.mtl
o Default
v 0.000000 -0.500000 -0.000000
v 0.191342 -0.461940 -0.000000
v 0.353553 -0.353553 -0.000000
v 0.461940 -0.191342 -0.000000
v 0.500000 0.000000 0.000000
v 0.461940 0.191342 0.000000
v 0.353553 0.353553 0.000000
v 0.191342 0.461940 0.000000
v -0.000000 0.500000 0.000000
v -0.191342 0.461940 0.000000
v -0.353553 0.353553 0.000000
v -0.461940 0.191342 0.000000
v -0.500000 -0.000000 -0.000000
v -0.461940 -0.191342 -0.000000
v -0.353553 -0.353553 -0.000000
v -0.191342 -0.461940 -0.000000
v 0.000000 -0.500000 -0.250000
v -0.191342 -0.461940 -0.250000
v -0.353553 -0.353553 -0.250000
v -0.461940 -0.191342 -0.250000
v -0.500000 0.000000 -0.250000
v -0.461940 0.191342 -0.250000
v -0.353553 0.353553 -0.250000
v -0.191342 0.461940 -0.250000
v -0.000000 0.500000 -0.250000
v 0.191342 0.461940 -0.250000
v 0.353553 0.353553 -0.250000
v 0.461940 0.191342 -0.250000
v 0.500000 0.000000 -0.250000
v 0.461940 -0.191342 -0.250000
v 0.353553 -0.353553 -0.250000
v 0.191342 -0.461940 -0.250000
v 0.000000 -0.500000 -0.500000
v -0.191342 -0.461940 -0.500000
v -0.353553 -0.353553 -0.500000
v -0.461940 -0.191342 -0.500000
v -0.500000 0.000000 -0.500000
v -0.461940 0.191342 -0.500000
v -0.353553 0.353553 -0.500000
v -0.191342 0.461940 -0.500000
v 0.000000 0.500000 -0.500000
v 0.191342 0.461940 -0.500000
v 0.353553 0.353553 -0.500000
v 0.461940 0.191342 -0.500000
v 0.500000 0.000000 -0.500000
v 0.461940 -0.191342 -0.500000
v 0.353553 -0.353553 -0.500000
v 0.191342 -0.461940 -0.500000
v 0.000000 -0.500000 -0.750000
v -0.191342 -0.461940 -0.750000
v -0.353553 -0.353553 -0.750000
v -0.461940 -0.191342 -0.750000
v -0.500000 0.000000 -0.750000
v -0.461940 0.191342 -0.750000
v -0.353553 0.353553 -0.750000
v -0.191342 0.461940 -0.750000
v 0.000000 0.500000 -0.750000
v 0.191342 0.461940 -0.750000
v 0.353553 0.353553 -0.750000
v 0.461940 0.191342 -0.750000
v 0.500000 0.000000 -0.750000
v 0.461940 -0.191342 -0.750000
v 0.353553 -0.353553 -0.750000
v 0.191342 -0.461940 -0.750000
v 0.000000 -0.500000 -1.000000
v -0.191342 -0.461940 -1.000000
v -0.353553 -0.353553 -1.000000
v -0.461940 -0.191342 -1.000000
v -0.500000 0.000000 -1.000000
v -0.461940 0.191342 -1.000000
v -0.353553 0.353553 -1.000000
v -0.191342 0.461940 -1.000000
v 0.000000 0.500000 -1.000000
v 0.191342 0.461940 -1.000000
v 0.353553 0.353553 -1.000000
v 0.461940 0.191342 -1.000000
v 0.500000 0.000000 -1.000000
v 0.461940 -0.191342 -1.000000
v 0.353553 -0.353553 -1.000000
v 0.191342 -0.461940 -1.000000
vt 0.542133 0.888893
vt 0.611107 0.542133
vt 0.957867 0.611107
vt 0.000000 0.000000
vt 0.062500 0.125000
vt 0.000000 0.125000
vt 0.062500 0.000000
vt 0.125000 0.125000
vt 0.125000 0.000000
vt 0.187500 0.125000
vt 0.187500 0.000000
vt 0.250000 0.125000
vt 0.250000 0.000000
vt 0.312500 0.125000
vt 0.312500 0.000000
vt 0.375000 0.125000
vt 0.375000 0.000000
vt 0.437500 0.125000
vt 0.437500 0.000000
vt 0.500000 0.125000
vt 0.500000 0.000000
vt 0.562500 0.125000
vt 0.562500 0.000000
vt 0.625000 0.125000
vt 0.625000 0.000000
vt 0.687500 0.125000
vt 0.687500 0.000000
vt 0.750000 0.125000
vt 0.750000 0.000000
vt 0.812500 0.125000
vt 0.812500 0.000000
vt 0.875000 0.125000
vt 0.875000 0.000000
vt 0.937500 0.125000
vt 0.937500 0.000000
vt 1.000000 0.125000
vt 0.062500 0.250000
vt 0.000000 0.250000
vt 0.125000 0.250000
vt 0.187500 0.250000
vt 0.250000 0.250000
vt 0.312500 0.250000
vt 0.375000 0.250000
vt 0.437500 0.250000
vt 0.500000 0.250000
vt 0.562500 0.250000
vt 0.625000 0.250000
vt 0.687500 0.250000
vt 0.750000 0.250000
vt 0.812500 0.250000
vt 0.875000 0.250000
vt 0.937500 0.250000
vt 1.000000 0.250000
vt 0.062500 0.375000
vt 0.000000 0.375000
vt 0.125000 0.375000
vt 0.187500 0.375000
vt 0.250000 0.375000
vt 0.312500 0.375000
vt 0.375000 0.375000
vt 0.437500 0.375000
vt 0.500000 0.375000
vt 0.562500 0.375000
vt 0.625000 0.375000
vt 0.687500 0.375000
vt 0.750000 0.375000
vt 0.812500 0.375000
vt 0.875000 0.375000
vt 0.937500 0.375000
vt 1.000000 0.375000
vt 0.062500 0.500000
vt 0.000000 0.500000
vt 0.125000 0.500000
vt 0.187500 0.500000
vt 0.250000 0.500000
vt 0.312500 0.500000
vt 0.375000 0.500000
vt 0.437500 0.500000
vt 0.500000 0.500000
vt 0.562500 0.500000
vt 0.625000 0.500000
vt 0.687500 0.500000
vt 0.750000 0.500000
vt 0.812500 0.500000
vt 0.875000 0.500000
vt 0.937500 0.500000
vt 1.000000 0.500000
vt 0.004804 0.798773
vt 0.201227 0.504804
vt 0.495196 0.701227
vt 0.995196 0.701227
vt 0.995196 0.798773
vt 0.957867 0.888893
vt 0.888893 0.957867
vt 0.798773 0.995196
vt 0.701227 0.995196
vt 0.611107 0.957867
vt 0.504804 0.798773
vt 0.504804 0.701227
vt 0.542133 0.611107
vt 0.701227 0.504804
vt 0.798773 0.504804
vt 0.888893 0.542133
vt 1.000000 0.000000
vt 0.495196 0.798773
vt 0.457867 0.888893
vt 0.388893 0.957867
vt 0.298773 0.995196
vt 0.201227 0.995196
vt 0.111107 0.957867
vt 0.042133 0.888893
vt 0.004804 0.701227
vt 0.042133 0.611107
vt 0.111107 0.542133
vt 0.298773 0.504804
vt 0.388893 0.542133
vt 0.457867 0.611107
vn -0.0000 -0.0000 1.0000
vn 0.0000 -1.0000 -0.0000
vn -0.3827 -0.9239 -0.0000
vn -0.7071 -0.7071 -0.0000
vn -0.9239 -0.3827 -0.0000
vn -1.0000 -0.0000 0.0000
vn -0.9239 0.3827 0.0000
vn -0.7071 0.7071 0.0000
vn -0.3827 0.9239 0.0000
vn -0.0000 1.0000 0.0000
vn 0.3827 0.9239 0.0000
vn 0.7071 0.7071 0.0000
vn 0.9239 0.3827 0.0000
vn 1.0000 -0.0000 0.0000
vn 0.9239 -0.3827 -0.0000
vn 0.7071 -0.7071 -0.0000
vn 0.3827 -0.9239 -0.0000
vn 0.0000 0.0000 -1.0000
usemtl laser_pointer
s 1
f 8/1/1 12/2/1 16/3/1
f 1/4/2 18/5/3 17/6/2
f 16/7/3 19/8/4 18/5/3
f 15/9/4 20/10/5 19/8/4
f 14/11/5 21/12/6 20/10/5
f 13/13/6 22/14/7 21/12/6
f 12/15/7 23/16/8 22/14/7
f 11/17/8 24/18/9 23/16/8
f 10/19/9 25/20/10 24/18/9
f 9/21/10 26/22/11 25/20/10
f 8/23/11 27/24/12 26/22/11
f 7/25/12 28/26/13 27/24/12
f 6/27/13 29/28/14 28/26/13
f 5/29/14 30/30/15 29/28/14
f 4/31/15 31/32/16 30/30/15
f 3/33/16 32/34/17 31/32/16
f 2/35/17 17/36/2 32/34/17
f 17/6/2 34/37/3 33/38/2
f 18/5/3 35/39/4 34/37/3
f 19/8/4 36/40/5 35/39/4
f 20/10/5 37/41/6 36/40/5
f 21/12/6 38/42/7 37/41/6
f 22/14/7 39/43/8 38/42/7
f 23/16/8 40/44/9 39/43/8
f 24/18/9 41/45/10 40/44/9
f 25/20/10 42/46/11 41/45/10
f 26/22/11 43/47/12 42/46/11
f 27/24/12 44/48/13 43/47/12
f 28/26/13 45/49/14 44/48/13
f 29/28/14 46/50/15 45/49/14
f 30/30/15 47/51/16 46/50/15
f 31/32/16 48/52/17 47/51/16
f 32/34/17 33/53/2 48/52/17
f 33/38/2 50/54/3 49/55/2
f 34/37/3 51/56/4 50/54/3
f 35/39/4 52/57/5 51/56/4
f 36/40/5 53/58/6 52/57/5
f 37/41/6 54/59/7 53/58/6
f 38/42/7 55/60/8 54/59/7
f 39/43/8 56/61/9 55/60/8
f 40/44/9 57/62/10 56/61/9
f 41/45/10 58/63/11 57/62/10
f 42/46/11 59/64/12 58/63/11
f 43/47/12 60/65/13 59/64/12
f 44/48/13 61/66/14 60/65/13
f 45/49/14 62/67/15 61/66/14
f 46/50/15 63/68/16 62/67/15
f 47/51/16 64/69/17 63/68/16
f 48/52/17 49/70/2 64/69/17
f 49/55/2 66/71/3 65/72/2
f 50/54/3 67/73/4 66/71/3
f 51/56/4 68/74/5 67/73/4
f 52/57/5 69/75/6 68/74/5
f 53/58/6 70/76/7 69/75/6
f 54/59/7 71/77/8 70/76/7
f 55/60/8 72/78/9 71/77/8
f 56/61/9 73/79/10 72/78/9
f 57/62/10 74/80/11 73/79/10
f 58/63/11 75/81/12 74/80/11
f 59/64/12 76/82/13 75/81/12
f 60/65/13 77/83/14 76/82/13
f 61/66/14 78/84/15 77/83/14
f 62/67/15 79/85/16 78/84/15
f 63/68/16 80/86/17 79/85/16
f 64/69/17 65/87/2 80/86/17
f 72/88/18 76/89/18 80/90/18
f 16/3/1 1/91/1 2/92/1
f 2/92/1 3/93/1 16/3/1
f 3/93/1 4/94/1 16/3/1
f 4/94/1 5/95/1 6/96/1
f 6/96/1 7/97/1 4/94/1
f 7/97/1 8/1/1 4/94/1
f 8/1/1 9/98/1 10/99/1
f 10/99/1 11/100/1 8/1/1
f 11/100/1 12/2/1 8/1/1
f 12/2/1 13/101/1 14/102/1
f 14/102/1 15/103/1 12/2/1
f 15/103/1 16/3/1 12/2/1
f 16/3/1 4/94/1 8/1/1
f 1/4/2 16/7/3 18/5/3
f 16/7/3 15/9/4 19/8/4
f 15/9/4 14/11/5 20/10/5
f 14/11/5 13/13/6 21/12/6
f 13/13/6 12/15/7 22/14/7
f 12/15/7 11/17/8 23/16/8
f 11/17/8 10/19/9 24/18/9
f 10/19/9 9/21/10 25/20/10
f 9/21/10 8/23/11 26/22/11
f 8/23/11 7/25/12 27/24/12
f 7/25/12 6/27/13 28/26/13
f 6/27/13 5/29/14 29/28/14
f 5/29/14 4/31/15 30/30/15
f 4/31/15 3/33/16 31/32/16
f 3/33/16 2/35/17 32/34/17
f 2/35/17 1/104/2 17/36/2
f 17/6/2 18/5/3 34/37/3
f 18/5/3 19/8/4 35/39/4
f 19/8/4 20/10/5 36/40/5
f 20/10/5 21/12/6 37/41/6
f 21/12/6 22/14/7 38/42/7
f 22/14/7 23/16/8 39/43/8
f 23/16/8 24/18/9 40/44/9
f 24/18/9 25/20/10 41/45/10
f 25/20/10 26/22/11 42/46/11
f 26/22/11 27/24/12 43/47/12
f 27/24/12 28/26/13 44/48/13
f 28/26/13 29/28/14 45/49/14
f 29/28/14 30/30/15 46/50/15
f 30/30/15 31/32/16 47/51/16
f 31/32/16 32/34/17 48/52/17
f 32/34/17 17/36/2 33/53/2
f 33/38/2 34/37/3 50/54/3
f 34/37/3 35/39/4 51/56/4
f 35/39/4 36/40/5 52/57/5
f 36/40/5 37/41/6 53/58/6
f 37/41/6 38/42/7 54/59/7
f 38/42/7 39/43/8 55/60/8
f 39/43/8 40/44/9 56/61/9
f 40/44/9 41/45/10 57/62/10
f 41/45/10 42/46/11 58/63/11
f 42/46/11 43/47/12 59/64/12
f 43/47/12 44/48/13 60/65/13
f 44/48/13 45/49/14 61/66/14
f 45/49/14 46/50/15 62/67/15
f 46/50/15 47/51/16 63/68/16
f 47/51/16 48/52/17 64/69/17
f 48/52/17 33/53/2 49/70/2
f 49/55/2 50/54/3 66/71/3
f 50/54/3 51/56/4 67/73/4
f 51/56/4 52/57/5 68/74/5
f 52/57/5 53/58/6 69/75/6
f 53/58/6 54/59/7 70/76/7
f 54/59/7 55/60/8 71/77/8
f 55/60/8 56/61/9 72/78/9
f 56/61/9 57/62/10 73/79/10
f 57/62/10 58/63/11 74/80/11
f 58/63/11 59/64/12 75/81/12
f 59/64/12 60/65/13 76/82/13
f 60/65/13 61/66/14 77/83/14
f 61/66/14 62/67/15 78/84/15
f 62/67/15 63/68/16 79/85/16
f 63/68/16 64/69/17 80/86/17
f 64/69/17 49/70/2 65/87/2
f 80/90/18 65/105/18 66/106/18
f 66/106/18 67/107/18 80/90/18
f 67/107/18 68/108/18 80/90/18
f 68/108/18 69/109/18 70/110/18
f 70/110/18 71/111/18 68/108/18
f 71/111/18 72/88/18 68/108/18
f 72/88/18 73/112/18 74/113/18
f 74/113/18 75/114/18 72/88/18
f 75/114/18 76/89/18 72/88/18
f 76/89/18 77/115/18 78/116/18
f 78/116/18 79/117/18 76/89/18
f 79/117/18 80/90/18 76/89/18
f 80/90/18 68/108/18 72/88/18
