# Blender v2.79 (sub 0) OBJ File: ''
# www.blender.org
mtllib led.mtl
o LED_group1
v 0.000491 0.002085 0.095958
v 0.000284 0.002107 0.095751
v 0.000284 0.002902 0.095835
v 0.000491 0.002875 0.096041
v 0.000000 0.002114 0.095675
v 0.000000 0.002915 0.095760
v -0.000284 0.002107 0.095751
v -0.000284 0.002902 0.095835
v -0.000491 0.002085 0.095958
v -0.000491 0.002875 0.096041
v -0.000568 0.002055 0.096240
v -0.000568 0.002847 0.096323
v -0.000491 0.002026 0.096522
v -0.000491 0.002815 0.096605
v -0.000284 0.002004 0.096729
v -0.000284 0.002799 0.096812
v 0.000000 0.001996 0.096804
v 0.000000 0.002796 0.096888
v 0.000284 0.002004 0.096729
v 0.000284 0.002799 0.096812
v 0.000491 0.002026 0.096522
v 0.000491 0.002815 0.096605
v 0.000568 0.002055 0.096240
v 0.000568 0.002847 0.096323
v 0.000433 0.002944 0.096082
v 0.000250 0.002968 0.095900
v 0.000000 0.002927 0.096331
v 0.000000 0.002979 0.095834
v -0.000250 0.002968 0.095900
v -0.000433 0.002944 0.096082
v -0.000500 0.002919 0.096331
v -0.000433 0.002891 0.096579
v -0.000250 0.002877 0.096762
v 0.000000 0.002875 0.096829
v 0.000250 0.002877 0.096762
v 0.000433 0.002891 0.096579
v 0.000500 0.002919 0.096331
vt 0.434274 0.698353
vt 0.434787 0.692305
vt 0.438303 0.694335
vt 0.428775 0.699814
vt 0.432245 0.694839
vt 0.425313 0.694839
vt 0.428779 0.695763
vt 0.423287 0.698353
vt 0.422771 0.692305
vt 0.417786 0.688833
vt 0.419262 0.694338
vt 0.422771 0.685368
vt 0.421844 0.688836
vt 0.423273 0.679324
vt 0.419258 0.683336
vt 0.428777 0.677856
vt 0.425313 0.682834
vt 0.432244 0.682834
vt 0.428779 0.681910
vt 0.434283 0.679323
vt 0.434786 0.685368
vt 0.439770 0.688838
vt 0.438299 0.683342
vt 0.435714 0.688836
vt 0.433877 0.691761
vt 0.431722 0.693915
vt 0.428779 0.688818
vt 0.428779 0.694704
vt 0.425836 0.693915
vt 0.423681 0.691761
vt 0.422892 0.688818
vt 0.423681 0.685874
vt 0.425836 0.683720
vt 0.428779 0.682931
vt 0.431722 0.683720
vt 0.433877 0.685874
vt 0.434666 0.688818
vn 0.4996 0.0904 -0.8615
vn 0.8652 0.1094 -0.4894
vn 0.8660 0.0523 -0.4973
vn 0.0000 0.1045 -0.9945
vn 0.2014 0.4532 -0.8684
vn -0.4969 0.1508 -0.8546
vn -0.2900 0.4484 -0.8455
vn -0.4996 0.0904 -0.8615
vn -0.8640 0.1097 -0.4914
vn -1.0000 -0.0000 -0.0000
vn -0.8660 0.0523 -0.4973
vn -0.8640 0.0057 0.5035
vn -0.8885 0.3263 0.3225
vn -0.4991 -0.0905 0.8618
vn -0.8659 -0.0523 0.4974
vn 0.0000 -0.1040 0.9946
vn -0.2013 0.2628 0.9436
vn 0.4968 -0.0293 0.8674
vn 0.2888 0.2603 0.9213
vn 0.4991 -0.0905 0.8618
vn 0.8640 0.0057 0.5035
vn 1.0000 -0.0000 -0.0000
vn 0.8659 -0.0523 0.4974
vn 0.8889 0.3856 -0.2475
vn 0.0195 0.9946 0.1018
vn 0.0205 0.9941 0.1062
vn -0.0000 0.9945 0.1048
vn 0.0000 0.9946 0.1041
vn -0.0205 0.9941 0.1062
vn -0.0197 0.9946 0.1015
vn -0.0161 0.9944 0.1045
vn -0.0198 0.9940 0.1075
vn -0.0206 0.9945 0.1028
vn 0.0000 0.9945 0.1043
vn 0.0206 0.9945 0.1028
vn 0.0198 0.9940 0.1075
vn 0.0161 0.9944 0.1045
vn -0.6390 0.6358 0.4330
vn -0.7314 0.6782 0.0717
vn -0.6393 0.7115 -0.2917
vn -0.3760 0.7430 -0.5537
vn -0.0000 0.7583 -0.6519
vn 0.3760 0.7430 -0.5537
vn 0.6393 0.7115 -0.2917
vn 0.7314 0.6782 0.0717
vn 0.6390 0.6358 0.4330
vn 0.3755 0.6126 0.6955
vn -0.0000 0.6028 0.7979
vn -0.3755 0.6126 0.6955
usemtl lambert4SG.002
s 1
f 2/1/1 4/2/2 1/3/3
f 5/4/4 3/5/5 2/1/1
f 5/4/4 8/6/6 6/7/7
f 7/8/8 10/9/9 8/6/6
f 11/10/10 10/9/9 9/11/11
f 11/10/10 14/12/12 12/13/13
f 15/14/14 14/12/12 13/15/15
f 17/16/16 16/17/17 15/14/14
f 17/16/16 20/18/18 18/19/19
f 19/20/20 22/21/21 20/18/18
f 23/22/22 22/21/21 21/23/23
f 23/22/22 4/2/2 24/24/24
f 25/25/25 26/26/26 27/27/27
f 26/26/26 28/28/28 27/27/27
f 28/28/28 29/29/29 27/27/27
f 29/29/29 30/30/30 27/27/27
f 30/30/30 31/31/31 27/27/27
f 31/31/31 32/32/32 27/27/27
f 32/32/32 33/33/33 27/27/27
f 33/33/33 34/34/34 27/27/27
f 34/34/34 35/35/35 27/27/27
f 35/35/35 36/36/36 27/27/27
f 36/36/36 37/37/37 27/27/27
f 37/37/37 25/25/25 27/27/27
f 12/13/13 32/32/38 31/31/39
f 12/13/13 30/30/40 10/9/9
f 8/6/6 30/30/40 29/29/41
f 6/7/7 29/29/41 28/28/42
f 6/7/7 26/26/43 3/5/5
f 3/5/5 25/25/44 4/2/2
f 24/24/24 25/25/44 37/37/45
f 24/24/24 36/36/46 22/21/21
f 20/18/18 36/36/46 35/35/47
f 18/19/19 35/35/47 34/34/48
f 18/19/19 33/33/49 16/17/17
f 16/17/17 32/32/38 14/12/12
f 2/1/1 3/5/5 4/2/2
f 5/4/4 6/7/7 3/5/5
f 5/4/4 7/8/8 8/6/6
f 7/8/8 9/11/11 10/9/9
f 11/10/10 12/13/13 10/9/9
f 11/10/10 13/15/15 14/12/12
f 15/14/14 16/17/17 14/12/12
f 17/16/16 18/19/19 16/17/17
f 17/16/16 19/20/20 20/18/18
f 19/20/20 21/23/23 22/21/21
f 23/22/22 24/24/24 22/21/21
f 23/22/22 1/3/3 4/2/2
f 12/13/13 14/12/12 32/32/38
f 12/13/13 31/31/39 30/30/40
f 8/6/6 10/9/9 30/30/40
f 6/7/7 8/6/6 29/29/41
f 6/7/7 28/28/42 26/26/43
f 3/5/5 26/26/43 25/25/44
f 24/24/24 4/2/2 25/25/44
f 24/24/24 37/37/45 36/36/46
f 20/18/18 22/21/21 36/36/46
f 18/19/19 20/18/18 35/35/47
f 18/19/19 34/34/48 33/33/49
f 16/17/17 33/33/49 32/32/38
