# Blender v2.79 (sub 0) OBJ File: ''
# www.blender.org
mtllib plane2.mtl
o Plane
v -1.000000 -0.000010 1.000000
v 1.000000 -0.000010 1.000000
v -1.000000 -0.000010 -1.000000
v 1.000000 -0.000010 -1.000000
v -1.000000 0.000000 1.000000
v 1.000000 0.000000 1.000000
v -1.000000 0.000000 -1.000000
v 1.000000 0.000000 -1.000000
vt 0.000000 1.000000
vt 0.000000 0.500000
vt 0.999979 0.500000
vt 0.999979 1.000000
vt 0.999979 0.500000
vt 0.000000 0.500000
vt 0.000000 0.000000
vt 0.999979 0.000000
vt 0.999984 0.000000
vt 0.999985 0.500000
vt 0.999979 0.500000
vt 0.999979 0.000000
vt 0.999990 0.000000
vt 0.999990 0.500000
vt 1.000000 0.000000
vt 1.000000 0.500000
vt 0.999995 0.500000
vt 0.999995 0.000000
vn 0.0000 1.0000 0.0000
vn 0.0000 -1.0000 0.0000
vn 1.0000 0.0000 0.0000
vn 0.0000 0.0000 -1.0000
vn -1.0000 0.0000 0.0000
vn 0.0000 0.0000 1.0000
usemtl None
s off
f 1/1/1 2/2/1 4/3/1 3/4/1
f 5/5/2 7/6/2 8/7/2 6/8/2
f 1/9/3 3/10/3 7/11/3 5/12/3
f 2/13/4 1/14/4 5/5/4 6/8/4
f 4/15/5 2/16/5 6/17/5 8/18/5
f 3/10/6 4/15/6 8/18/6 7/11/6
